<svg width="93" height="21" viewBox="0 0 93 21" fill="none" xmlns="http://www.w3.org/2000/svg">
<path d="M14.3414 20.224L0.933438 12.448V8.64L14.3414 0.896V5.696L6.02144 10.528L14.3414 15.36V20.224ZM17.3804 20V1.254H20.8124V16.542H36.1004V20H17.3804ZM37.6682 20V1.28H54.9062V4.738H41.1262V8.898H52.2022V12.382H41.1262V16.542H54.9062V20H37.6682ZM60.5258 20C59.8671 20 59.2605 19.8353 58.7058 19.506C58.1685 19.1767 57.7351 18.7433 57.4058 18.206C57.0765 17.6513 56.9118 17.0447 56.9118 16.386V4.894C56.9118 4.23533 57.0765 3.63733 57.4058 3.1C57.7351 2.54533 58.1685 2.10333 58.7058 1.774C59.2605 1.44467 59.8671 1.28 60.5258 1.28H72.0178C72.6765 1.28 73.2745 1.44467 73.8118 1.774C74.3665 2.10333 74.8085 2.54533 75.1378 3.1C75.4671 3.63733 75.6318 4.23533 75.6318 4.894V16.386C75.6318 17.0447 75.4671 17.6513 75.1378 18.206C74.8085 18.7433 74.3665 19.1767 73.8118 19.506C73.2745 19.8353 72.6765 20 72.0178 20H60.5258ZM60.6558 16.542H71.8358C71.9225 16.542 72.0005 16.516 72.0698 16.464C72.1391 16.3947 72.1738 16.3167 72.1738 16.23V5.05C72.1738 4.96333 72.1391 4.894 72.0698 4.842C72.0005 4.77267 71.9225 4.738 71.8358 4.738H60.6558C60.5691 4.738 60.4911 4.77267 60.4218 4.842C60.3698 4.894 60.3438 4.96333 60.3438 5.05V16.23C60.3438 16.3167 60.3698 16.3947 60.4218 16.464C60.4911 16.516 60.5691 16.542 60.6558 16.542ZM78.9271 20.288V15.424L87.2471 10.592L78.9271 5.792V0.959999L92.3671 8.704V12.512L78.9271 20.288Z" fill="url(#paint0_linear_1_43)"/>
<defs>
<linearGradient id="paint0_linear_1_43" x1="-1" y1="8" x2="94" y2="8" gradientUnits="userSpaceOnUse">
<stop stop-color="#9900FF"/>
<stop offset="0.480769" stop-color="#5459FF"/>
<stop offset="0.884615" stop-color="#00C8FF"/>
</linearGradient>
</defs>
</svg>
